<svg width="16" height="16" viewBox="0 0 16 16" fill="none" xmlns="http://www.w3.org/2000/svg">
<path fill-rule="evenodd" clip-rule="evenodd" d="M8.00012 1.44158C10.1362 1.44158 10.3892 1.44971 11.2328 1.48819C12.0128 1.52379 12.4364 1.65412 12.7183 1.76365C13.0917 1.90877 13.3582 2.08216 13.6382 2.36209C13.9181 2.64202 14.0915 2.90855 14.2366 3.28193C14.3461 3.56386 14.4764 3.98746 14.512 4.76742C14.5505 5.61102 14.5587 5.86402 14.5587 8.00012C14.5587 10.1362 14.5505 10.3892 14.512 11.2328C14.4764 12.0128 14.3461 12.4364 14.2366 12.7183C14.0915 13.0917 13.9181 13.3582 13.6382 13.6382C13.3582 13.9181 13.0917 14.0915 12.7183 14.2366C12.4364 14.3461 12.0128 14.4764 11.2328 14.512C10.3894 14.5505 10.1364 14.5587 8.00012 14.5587C5.86389 14.5587 5.61089 14.5505 4.76745 14.512C3.98746 14.4764 3.56386 14.3461 3.28197 14.2366C2.90855 14.0915 2.64202 13.9181 2.36209 13.6382C2.08216 13.3582 1.90877 13.0917 1.76368 12.7183C1.65412 12.4364 1.52379 12.0128 1.48819 11.2328C1.44971 10.3892 1.44158 10.1362 1.44158 8.00012C1.44158 5.86402 1.44971 5.61102 1.48819 4.76745C1.52379 3.98746 1.65412 3.56386 1.76368 3.28193C1.90877 2.90855 2.08216 2.64202 2.36209 2.36209C2.64202 2.08216 2.90855 1.90877 3.28197 1.76365C3.56386 1.65412 3.98746 1.52379 4.76742 1.48819C5.61102 1.44971 5.86402 1.44158 8.00012 1.44158ZM7.99998 0C5.8273 0 5.5549 0.00920926 4.70161 0.0481422C3.85007 0.0870116 3.26855 0.222229 2.75966 0.420006C2.23359 0.624451 1.78745 0.897998 1.34271 1.34274C0.897966 1.78748 0.624419 2.23363 0.419974 2.7597C0.222197 3.26859 0.0869798 3.8501 0.0481104 4.70164C0.0091775 5.5549 0 5.82733 0 8.00002C0 10.1727 0.0091775 10.4451 0.0481104 11.2984C0.0869798 12.1499 0.222197 12.7314 0.419974 13.2403C0.624419 13.7664 0.897966 14.2125 1.34271 14.6573C1.78745 15.102 2.23359 15.3756 2.75966 15.58C3.26855 15.7778 3.85007 15.913 4.70161 15.9519C5.5549 15.9908 5.8273 16 7.99998 16C10.1727 16 10.4451 15.9908 11.2984 15.9519C12.1499 15.913 12.7314 15.7778 13.2403 15.58C13.7664 15.3756 14.2125 15.102 14.6573 14.6573C15.102 14.2125 15.3756 13.7664 15.58 13.2403C15.7778 12.7314 15.913 12.1499 15.9519 11.2984C15.9908 10.4451 16 10.1727 16 8.00002C16 5.82733 15.9908 5.5549 15.9519 4.70164C15.913 3.8501 15.7778 3.26859 15.58 2.7597C15.3756 2.23363 15.102 1.78748 14.6573 1.34274C14.2125 0.897998 13.7664 0.624451 13.2403 0.420006C12.7314 0.222229 12.1499 0.0870116 11.2984 0.0481422C10.4451 0.00920926 10.1727 0 7.99998 0ZM8.016 3.90489C5.74551 3.90489 3.90489 5.74551 3.90489 8.016C3.90489 10.2865 5.74551 12.1271 8.016 12.1271C10.2865 12.1271 12.1271 10.2865 12.1271 8.016C12.1271 5.74551 10.2865 3.90489 8.016 3.90489ZM8.01577 10.6844C6.54195 10.6844 5.34715 9.48959 5.34715 8.01577C5.34715 6.54195 6.54195 5.34715 8.01577 5.34715C9.48959 5.34715 10.6844 6.54195 10.6844 8.01577C10.6844 9.48959 9.48959 10.6844 8.01577 10.6844ZM13.2064 3.71459C13.2064 4.24058 12.78 4.66699 12.254 4.66699C11.728 4.66699 11.3016 4.24058 11.3016 3.71459C11.3016 3.1886 11.728 2.76223 12.254 2.76223C12.78 2.76223 13.2064 3.1886 13.2064 3.71459Z" fill="#BDBDBD"/>
</svg>
