<svg width="51" height="44" viewBox="0 0 51 44" fill="none" xmlns="http://www.w3.org/2000/svg">
<path d="M50.8102 44H0L25.4051 0L50.8102 44ZM1.15897 43.3282H49.6513L25.4051 1.33333L1.15897 43.3282Z" fill="black"/>
<path d="M25.4055 40.1441C24.8055 40.1441 24.3184 39.6569 24.3184 39.0569C24.3184 38.4569 24.8055 37.9697 25.4055 37.9697C26.0055 37.9697 26.4927 38.4569 26.4927 39.0569C26.4927 39.6569 26.0055 40.1441 25.4055 40.1441ZM25.4055 38.2108C24.9389 38.2108 24.5594 38.5902 24.5594 39.0569C24.5594 39.5236 24.9389 39.9031 25.4055 39.9031C25.8722 39.9031 26.2517 39.5236 26.2517 39.0569C26.2517 38.5902 25.8722 38.2108 25.4055 38.2108Z" fill="black"/>
<path d="M25.4051 40.1744C24.7897 40.1744 24.2871 39.6718 24.2871 39.0564C24.2871 38.441 24.7897 37.9385 25.4051 37.9385C26.0204 37.9385 26.523 38.441 26.523 39.0564C26.523 39.6718 26.0204 40.1744 25.4051 40.1744ZM25.4051 37.9949C24.8204 37.9949 24.3486 38.4718 24.3486 39.0513C24.3486 39.6359 24.8256 40.1077 25.4051 40.1077C25.9897 40.1077 26.4615 39.6308 26.4615 39.0513C26.4615 38.4718 25.9897 37.9949 25.4051 37.9949ZM25.4051 39.9333C24.923 39.9333 24.5281 39.5385 24.5281 39.0564C24.5281 38.5744 24.923 38.1795 25.4051 38.1795C25.8871 38.1795 26.282 38.5744 26.282 39.0564C26.282 39.5385 25.8871 39.9333 25.4051 39.9333ZM25.4051 38.241C24.9538 38.241 24.5897 38.6051 24.5897 39.0564C24.5897 39.5077 24.9538 39.8718 25.4051 39.8718C25.8563 39.8718 26.2204 39.5077 26.2204 39.0564C26.2204 38.6051 25.8512 38.241 25.4051 38.241Z" fill="black"/>
<path d="M25.6022 15.9419L25.3481 15.8193L17.0261 33.0647L17.2801 33.1873L25.6022 15.9419Z" fill="black"/>
<path d="M33.6412 33.1905L25.3232 15.9444C25.4053 15.9033 25.4925 15.8623 25.5745 15.8213C28.3489 21.57 31.1232 27.3187 33.8925 33.0674L33.6412 33.1905Z" fill="black"/>
<path d="M25.5743 15.8213H25.3486V15.9854H25.5743V15.8213Z" fill="black"/>
<path d="M30.4768 26.1338H20.4614V26.4158H30.4768V26.1338Z" fill="black"/>
</svg>
