<svg width="25" height="20" viewBox="0 0 25 20" fill="none" xmlns="http://www.w3.org/2000/svg">
<path d="M8.82353 0L7.35294 2.94118H2.05882C0.918235 2.94118 0 3.85941 0 5V17.9412C0 19.0818 0.918235 20 2.05882 20H22.6471C23.7876 20 24.7059 19.0818 24.7059 17.9412V5C24.7059 3.85941 23.7876 2.94118 22.6471 2.94118H17.3529L15.8824 0H8.82353ZM12.3529 6.17647C15.2768 6.17647 17.6471 8.54673 17.6471 11.4706C17.6471 14.3944 15.2768 16.7647 12.3529 16.7647C9.42912 16.7647 7.05882 14.3944 7.05882 11.4706C7.05882 8.54673 9.42912 6.17647 12.3529 6.17647Z" fill="black"/>
</svg>
