<svg width="16" height="12" viewBox="0 0 16 12" fill="none" xmlns="http://www.w3.org/2000/svg">
<path fill-rule="evenodd" clip-rule="evenodd" d="M7.18213 1.86751C7.47672 2.30128 7.62494 2.8179 7.62494 3.42128C7.62494 4.0422 7.47672 4.54225 7.17843 4.91948C7.00983 5.131 6.76434 5.32498 6.43918 5.49946C6.93294 5.68954 7.30441 5.98879 7.55731 6.39819C7.80836 6.80661 7.93342 7.30471 7.93342 7.88957C7.93342 8.49197 7.79076 9.03393 7.50265 9.51156C7.32016 9.82836 7.09135 10.0964 6.81807 10.3128C6.50959 10.5614 6.14645 10.731 5.72588 10.8236C5.30531 10.9162 4.85046 10.961 4.35856 10.961H0V0.782608H4.67445C5.85465 0.802103 6.6893 1.16276 7.18213 1.86751ZM1.92901 2.55084V4.79669H4.28106C4.69978 4.79669 5.0416 4.71188 5.30469 4.54325C5.565 4.37559 5.69747 4.07732 5.69747 3.65037C5.69747 3.17566 5.52424 2.86277 5.17778 2.70973C4.87856 2.60446 4.49783 2.55084 4.03464 2.55084H1.92901ZM1.92901 6.47985V9.19358H4.27735C4.697 9.19358 5.024 9.13412 5.25745 9.0152C5.68173 8.79295 5.89294 8.36991 5.89294 7.74509C5.89294 7.21384 5.68914 6.85123 5.27783 6.65238C5.04716 6.54224 4.72479 6.48375 4.3107 6.47985H1.92901ZM13.7819 3.58781C14.2821 3.82273 14.6934 4.19411 15.0167 4.70098C15.3122 5.1484 15.5021 5.66697 15.5883 6.2567C15.6383 6.60274 15.6596 7.10084 15.6504 7.751H10.4395C10.4701 8.50644 10.7174 9.03573 11.188 9.33888C11.4743 9.52798 11.818 9.62156 12.22 9.62156C12.6443 9.62156 12.9917 9.50751 13.2575 9.27747C13.4039 9.1527 13.5318 8.98017 13.6429 8.7589H15.5522C15.5021 9.20534 15.2705 9.6586 14.8592 10.1206C14.2191 10.8517 13.3215 11.2172 12.1691 11.2172C11.2168 11.2172 10.3756 10.9092 9.65027 10.2912C8.92029 9.6742 8.55808 8.66922 8.55808 7.27922C8.55808 5.97402 8.88602 4.97489 9.54189 4.27794C10.1996 3.58391 11.0519 3.23495 12.0996 3.23495C12.7221 3.23495 13.2835 3.35192 13.7819 3.58781ZM10.9841 5.28778C10.7201 5.57436 10.5534 5.96328 10.4857 6.45261H13.7086C13.6752 5.93014 13.5075 5.53439 13.2111 5.26341C12.911 4.9934 12.5413 4.85791 12.1004 4.85791C11.6215 4.85791 11.2481 5.0012 10.9841 5.28778ZM10.002 2.52426H14.1466V1.25805H10.002V2.52426Z" fill="#BDBDBD"/>
</svg>
