<svg width="11" height="10" viewBox="0 0 11 10" fill="none" xmlns="http://www.w3.org/2000/svg">
<path d="M9.49448 10C9.35717 9.99988 9.22552 9.94524 9.12849 9.84808L0.151391 0.87098C0.0599077 0.772802 0.0101035 0.642947 0.0124708 0.508773C0.0148382 0.374599 0.0691923 0.246582 0.164082 0.151692C0.258972 0.0568021 0.386989 0.00244803 0.521163 8.06885e-05C0.655337 -0.00228665 0.785192 0.0475176 0.88337 0.139001L9.86047 9.1161C9.93281 9.18853 9.98206 9.28077 10.002 9.38118C10.022 9.48158 10.0117 9.58565 9.97254 9.68023C9.93337 9.77481 9.86706 9.85566 9.78198 9.91257C9.69689 9.96949 9.59685 9.99991 9.49448 10Z" fill="#fff"/>
<path d="M0.517454 10C0.415088 9.99991 0.315044 9.96949 0.229958 9.91257C0.144872 9.85566 0.07856 9.77481 0.0393982 9.68023C0.000236396 9.58565 -0.0100192 9.48158 0.00992684 9.38118C0.0298728 9.28077 0.0791256 9.18853 0.151465 9.1161L9.12856 0.139001C9.22674 0.0475176 9.3566 -0.00228665 9.49077 8.06885e-05C9.62494 0.00244803 9.75296 0.0568021 9.84785 0.151692C9.94274 0.246582 9.9971 0.374599 9.99946 0.508773C10.0018 0.642947 9.95203 0.772802 9.86054 0.87098L0.883444 9.84808C0.78641 9.94524 0.654766 9.99988 0.517454 10Z" fill="#fff"/>
</svg>
