<svg width="161" height="161" viewBox="0 0 161 161" fill="none" xmlns="http://www.w3.org/2000/svg">
<path d="M137.315 102.554H24.764L81.0396 5.08887L137.315 102.554ZM27.3313 101.066H134.748L81.0396 8.04237L27.3313 101.066Z" fill="black"/>
<path d="M24.9231 117.322L34.0108 136.804H31.9093L28.8422 130.397H20.4474L17.4144 136.804H15.2447L24.446 117.322H24.9231ZM24.6845 121.457L21.3448 128.512H28.0015L24.6845 121.457Z" fill="black"/>
<path d="M37.0324 117.322H38.9749V134.93H46.4723V136.815H37.0324V117.322Z" fill="black"/>
<path d="M47.631 119.231V117.322H58.309V119.231H53.9583V136.804H51.9704V119.231H47.631Z" fill="black"/>
<path d="M69.0779 117.322L78.1656 136.804H76.064L72.9969 130.397H64.6022L61.5692 136.804H59.3995L68.6008 117.322H69.0779ZM68.828 121.457L65.4882 128.512H72.145L68.828 121.457Z" fill="black"/>
<path d="M88.4121 117.322H90.3546V136.804H88.4121V117.322Z" fill="black"/>
<path d="M94.8303 136.804V117.322H98.8744C101.794 117.322 103.907 117.561 105.224 118.027C107.11 118.686 108.587 119.833 109.655 121.469C110.722 123.104 111.256 125.047 111.256 127.307C111.256 129.261 110.836 130.977 109.995 132.465C109.155 133.953 108.053 135.043 106.713 135.748C105.361 136.452 103.475 136.804 101.044 136.804H94.8303ZM96.6933 134.964H98.9425C101.635 134.964 103.509 134.793 104.543 134.464C106.008 133.987 107.156 133.135 107.996 131.885C108.837 130.647 109.257 129.125 109.257 127.342C109.257 125.467 108.803 123.854 107.894 122.525C106.985 121.196 105.713 120.276 104.088 119.787C102.873 119.413 100.862 119.231 98.0565 119.231H96.6819V134.964H96.6933Z" fill="black"/>
<path d="M115.028 117.322H126.194V119.231H116.97V125.342H126.115V127.251H116.97V134.907H126.115V136.815H115.028V117.322Z" fill="black"/>
<path d="M137.52 117.322L146.607 136.804H144.506L141.439 130.397H133.044L130.011 136.804H127.841L137.043 117.322H137.52ZM137.281 121.457L133.941 128.512H140.598L137.281 121.457Z" fill="black"/>
<path d="M14.847 153.446V144.074H16.7895C18.1868 144.074 19.2091 144.188 19.8453 144.415C20.754 144.733 21.4583 145.29 21.9809 146.074C22.4921 146.858 22.7533 147.8 22.7533 148.88C22.7533 149.822 22.5489 150.64 22.1399 151.356C21.731 152.072 21.2084 152.594 20.5609 152.935C19.9134 153.276 19.0047 153.446 17.8346 153.446H14.847ZM15.7445 152.56H16.8236C18.1186 152.56 19.016 152.481 19.5159 152.322C20.2201 152.094 20.7768 151.685 21.1744 151.083C21.5833 150.493 21.7764 149.754 21.7764 148.902C21.7764 147.994 21.5606 147.221 21.1176 146.585C20.6859 145.949 20.0725 145.506 19.2887 145.267C18.698 145.085 17.7324 144.995 16.392 144.995H15.7331V152.56H15.7445Z" fill="black"/>
<path d="M27.8198 144.074H33.1929V144.995H28.7626V147.925H33.1588V148.846H28.7626V152.526H33.1588V153.446H27.8311V144.074H27.8198Z" fill="black"/>
<path d="M37.1006 151.697L37.8958 151.219C38.4524 152.253 39.0999 152.764 39.8383 152.764C40.1564 152.764 40.4517 152.696 40.7244 152.549C40.997 152.401 41.2128 152.208 41.3605 151.958C41.5082 151.708 41.5763 151.447 41.5763 151.174C41.5763 150.856 41.4741 150.549 41.2583 150.254C40.9629 149.834 40.429 149.334 39.6566 148.754C38.8727 148.164 38.3843 147.732 38.2025 147.471C37.8731 147.028 37.7027 146.551 37.7027 146.039C37.7027 145.631 37.8049 145.256 37.9981 144.926C38.1912 144.585 38.4638 144.324 38.8273 144.131C39.1795 143.938 39.5657 143.836 39.986 143.836C40.429 143.836 40.838 143.949 41.2242 144.165C41.6104 144.381 42.0194 144.79 42.4397 145.369L41.6786 145.949C41.3264 145.483 41.0311 145.176 40.7812 145.028C40.5313 144.881 40.2586 144.801 39.9746 144.801C39.5998 144.801 39.2931 144.915 39.0431 145.142C38.8046 145.369 38.6796 145.653 38.6796 145.994C38.6796 146.198 38.7251 146.392 38.8046 146.585C38.8841 146.778 39.0431 146.982 39.2703 147.21C39.3953 147.323 39.7929 147.641 40.4858 148.141C41.2923 148.743 41.849 149.277 42.1557 149.743C42.4624 150.208 42.6101 150.674 42.6101 151.151C42.6101 151.833 42.3488 152.424 41.8376 152.923C41.3264 153.423 40.6903 153.673 39.9519 153.673C39.3839 153.673 38.8727 153.525 38.407 153.219C37.9185 152.923 37.4869 152.412 37.1006 151.697Z" fill="black"/>
<path d="M47.6878 144.074H48.6193V153.446H47.6878V144.074Z" fill="black"/>
<path d="M63.0686 145.653L62.3416 146.346C61.8191 145.835 61.2511 145.437 60.6263 145.176C60.0015 144.915 59.3995 144.779 58.8088 144.779C58.0704 144.779 57.3775 144.96 56.7073 145.324C56.037 145.687 55.5258 146.176 55.1623 146.789C54.7988 147.403 54.6171 148.061 54.6171 148.743C54.6171 149.447 54.8102 150.118 55.1851 150.754C55.5599 151.39 56.0825 151.89 56.7527 152.253C57.4229 152.617 58.1499 152.798 58.9451 152.798C59.9107 152.798 60.7286 152.526 61.3874 151.981C62.0576 151.435 62.4439 150.731 62.5688 149.868H59.5812V148.959H63.6139C63.6025 150.402 63.1709 151.56 62.3189 152.412C61.4669 153.264 60.331 153.684 58.8997 153.684C57.173 153.684 55.7985 153.094 54.7875 151.912C54.015 151.004 53.6174 149.959 53.6174 148.754C53.6174 147.868 53.8446 147.039 54.2876 146.278C54.7307 145.517 55.3441 144.915 56.1165 144.483C56.889 144.052 57.7751 143.836 58.752 143.836C59.5472 143.836 60.2969 143.983 60.9898 144.267C61.7168 144.563 62.3984 145.017 63.0686 145.653Z" fill="black"/>
<path d="M68.6689 153.446V144.074H68.8734L75.1099 151.254V144.074H76.03V153.446H75.8255L69.6459 146.358V153.446H68.6689Z" fill="black"/>
<path d="M87.4805 151.697L88.2757 151.219C88.8323 152.253 89.4798 152.764 90.2182 152.764C90.5363 152.764 90.8316 152.696 91.1042 152.549C91.3769 152.401 91.5927 152.208 91.729 151.958C91.8767 151.708 91.9449 151.447 91.9449 151.174C91.9449 150.856 91.8426 150.549 91.6268 150.254C91.3314 149.834 90.7975 149.334 90.0251 148.754C89.2413 148.164 88.7528 147.732 88.5711 147.471C88.2416 147.028 88.0712 146.551 88.0712 146.039C88.0712 145.631 88.1735 145.256 88.3666 144.926C88.5597 144.585 88.8323 144.324 89.1958 144.131C89.548 143.938 89.9342 143.836 90.3545 143.836C90.7975 143.836 91.2065 143.949 91.5927 144.165C91.9789 144.381 92.3879 144.79 92.8082 145.369L92.0471 145.949C91.6949 145.483 91.3996 145.176 91.1497 145.028C90.8998 144.881 90.6271 144.801 90.3431 144.801C89.9683 144.801 89.6616 144.915 89.4117 145.142C89.1731 145.369 89.0482 145.653 89.0482 145.994C89.0482 146.198 89.0936 146.392 89.1731 146.585C89.2526 146.778 89.4117 146.982 89.6389 147.21C89.7638 147.323 90.1614 147.641 90.8543 148.141C91.6609 148.743 92.2175 149.277 92.5242 149.743C92.8309 150.208 92.9786 150.674 92.9786 151.151C92.9786 151.833 92.7173 152.424 92.2061 152.923C91.6949 153.423 91.0588 153.673 90.3204 153.673C89.7524 153.673 89.2413 153.525 88.7755 153.219C88.2984 152.923 87.8668 152.412 87.4805 151.697Z" fill="black"/>
<path d="M97.2725 144.995V144.074H102.407V144.995H100.317V153.446H99.3627V144.995H97.2725Z" fill="black"/>
<path d="M107.053 144.074H107.985V149.732C107.985 150.402 107.996 150.822 108.019 150.981C108.064 151.356 108.178 151.663 108.348 151.913C108.518 152.163 108.78 152.367 109.132 152.537C109.484 152.708 109.836 152.787 110.2 152.787C110.506 152.787 110.802 152.719 111.086 152.594C111.37 152.458 111.608 152.276 111.801 152.049C111.994 151.81 112.131 151.538 112.222 151.197C112.29 150.958 112.313 150.47 112.313 149.732V144.074H113.244V149.732C113.244 150.572 113.165 151.242 112.994 151.765C112.835 152.276 112.506 152.73 112.017 153.117C111.529 153.503 110.938 153.685 110.234 153.685C109.473 153.685 108.825 153.503 108.291 153.139C107.757 152.776 107.394 152.299 107.212 151.708C107.098 151.345 107.042 150.686 107.042 149.732V144.074H107.053Z" fill="black"/>
<path d="M118.822 153.446V144.074H120.764C122.161 144.074 123.184 144.188 123.82 144.415C124.729 144.733 125.433 145.29 125.956 146.074C126.467 146.858 126.728 147.8 126.728 148.88C126.728 149.822 126.524 150.64 126.115 151.356C125.706 152.072 125.183 152.594 124.536 152.935C123.888 153.276 122.979 153.446 121.809 153.446H118.822ZM119.719 152.56H120.798C122.093 152.56 122.991 152.481 123.491 152.322C124.195 152.094 124.751 151.685 125.149 151.083C125.558 150.493 125.751 149.754 125.751 148.902C125.751 147.994 125.535 147.221 125.092 146.585C124.649 145.949 124.047 145.506 123.263 145.267C122.673 145.085 121.707 144.995 120.367 144.995H119.708V152.56H119.719Z" fill="black"/>
<path d="M131.647 144.074H132.578V153.446H131.647V144.074Z" fill="black"/>
<path d="M142.45 143.847C143.87 143.847 145.051 144.324 146.017 145.267C146.971 146.21 147.448 147.38 147.448 148.766C147.448 150.141 146.971 151.299 146.017 152.253C145.063 153.208 143.904 153.685 142.529 153.685C141.143 153.685 139.962 153.208 139.008 152.253C138.054 151.299 137.576 150.152 137.576 148.8C137.576 147.903 137.792 147.062 138.224 146.301C138.656 145.529 139.258 144.926 140.007 144.495C140.769 144.063 141.575 143.847 142.45 143.847ZM142.495 144.756C141.802 144.756 141.143 144.938 140.519 145.301C139.894 145.665 139.417 146.153 139.065 146.755C138.712 147.369 138.542 148.05 138.542 148.8C138.542 149.913 138.928 150.856 139.701 151.617C140.473 152.39 141.405 152.765 142.495 152.765C143.222 152.765 143.892 152.583 144.517 152.231C145.131 151.879 145.619 151.401 145.96 150.788C146.312 150.175 146.482 149.493 146.482 148.743C146.482 148.005 146.312 147.323 145.96 146.721C145.608 146.119 145.131 145.642 144.495 145.279C143.87 144.938 143.2 144.756 142.495 144.756Z" fill="black"/>
<path d="M81.0404 94.0132C79.7114 94.0132 78.6322 92.9341 78.6322 91.605C78.6322 90.2759 79.7114 89.1968 81.0404 89.1968C82.3695 89.1968 83.4487 90.2759 83.4487 91.605C83.4487 92.9341 82.3695 94.0132 81.0404 94.0132ZM81.0404 89.7307C80.0067 89.7307 79.1661 90.5713 79.1661 91.605C79.1661 92.6387 80.0067 93.4793 81.0404 93.4793C82.0742 93.4793 82.9148 92.6387 82.9148 91.605C82.9148 90.5713 82.0742 89.7307 81.0404 89.7307Z" fill="black"/>
<path d="M81.0396 94.0802C79.6764 94.0802 78.5632 92.967 78.5632 91.6038C78.5632 90.2407 79.6764 89.1274 81.0396 89.1274C82.4027 89.1274 83.5159 90.2407 83.5159 91.6038C83.5159 92.967 82.4027 94.0802 81.0396 94.0802ZM81.0396 89.2524C79.7446 89.2524 78.6995 90.3088 78.6995 91.5924C78.6995 92.8874 79.7559 93.9325 81.0396 93.9325C82.3346 93.9325 83.3796 92.8761 83.3796 91.5924C83.3796 90.3088 82.3346 89.2524 81.0396 89.2524ZM81.0396 93.5463C79.9718 93.5463 79.0971 92.6716 79.0971 91.6038C79.0971 90.536 79.9718 89.6613 81.0396 89.6613C82.1074 89.6613 82.982 90.536 82.982 91.6038C82.982 92.6716 82.1074 93.5463 81.0396 93.5463ZM81.0396 89.7976C80.0399 89.7976 79.2334 90.6042 79.2334 91.6038C79.2334 92.6035 80.0399 93.41 81.0396 93.41C82.0392 93.41 82.8457 92.6035 82.8457 91.6038C82.8457 90.6042 82.0278 89.7976 81.0396 89.7976Z" fill="black"/>
<path d="M81.4766 40.4022L80.9139 40.1307L62.4796 78.3313L63.0423 78.6028L81.4766 40.4022Z" fill="black"/>
<path d="M99.2831 78.6088L80.8578 40.4064C81.0395 40.3155 81.2327 40.2246 81.4144 40.1337C87.56 52.8679 93.7055 65.602 99.8397 78.3362L99.2831 78.6088Z" fill="black"/>
<path d="M81.4143 40.1337H80.9145V40.4972H81.4143V40.1337Z" fill="black"/>
<path d="M92.2742 62.9778H70.0888V63.6026H92.2742V62.9778Z" fill="black"/>
</svg>
