<svg width="19" height="20" viewBox="0 0 19 20" fill="none" xmlns="http://www.w3.org/2000/svg">
<path d="M14.0504 11.8484C12.441 14.4292 10.3976 16.4537 10.0324 16.8069C9.81678 17.0213 9.51835 17.144 9.19999 17.144C8.88163 17.144 8.58319 17.0213 8.35975 16.7991C7.99921 16.4505 5.95802 14.4282 4.34941 11.8485C1.66738 12.632 0 14.0343 0 15.5998C0 18.067 4.04101 19.9998 9.19999 19.9998C14.359 19.9998 18.4 18.067 18.4 15.5998C18.4 14.0343 16.7325 12.6319 14.0504 11.8484Z" fill="black"/>
<path d="M8.92382 16.232C8.99982 16.308 9.09982 16.344 9.19982 16.344C9.29982 16.344 9.39982 16.308 9.47582 16.232C9.71183 16.004 15.2678 10.608 15.2678 6.06799C15.2678 2.724 12.5478 0 9.19982 0C5.85183 0 3.13184 2.724 3.13184 6.06799C3.13184 10.608 8.68781 16.004 8.92382 16.232ZM5.55183 6.06799C5.55183 4.056 7.18781 2.41999 9.19982 2.41999C11.2118 2.41999 12.8478 4.056 12.8478 6.06799C12.8478 8.08 11.2118 9.71598 9.19982 9.71598C7.18781 9.71598 5.55183 8.08 5.55183 6.06799Z" fill="black"/>
</svg>
