<svg width="11" height="15" viewBox="0 0 11 15" fill="none" xmlns="http://www.w3.org/2000/svg">
<path d="M5.39022 14.2631C5.457 14.3299 5.54487 14.3615 5.63274 14.3615C5.72061 14.3615 5.80848 14.3299 5.87526 14.2631C6.08264 14.0627 10.9647 9.32126 10.9647 5.33196C10.9647 2.39358 8.57463 0 5.63274 0C2.69085 0 0.300781 2.39358 0.300781 5.33196C0.300781 9.32126 5.18283 14.0627 5.39022 14.2631ZM2.42724 5.33196C2.42724 3.56402 3.86478 2.12645 5.63274 2.12645C7.4007 2.12645 8.83824 3.56402 8.83824 5.33196C8.83824 7.09992 7.4007 8.53746 5.63274 8.53746C3.86478 8.53746 2.42724 7.09992 2.42724 5.33196Z" fill="black"/>
<path fill-rule="evenodd" clip-rule="evenodd" d="M5.60483 9.68357C7.88158 9.68357 9.72724 7.8379 9.72724 5.56116C9.72724 3.28442 7.88158 1.43875 5.60483 1.43875C3.32809 1.43875 1.48242 3.28442 1.48242 5.56116C1.48242 7.8379 3.32809 9.68357 5.60483 9.68357ZM5.60431 7.62331C6.74268 7.62331 7.66551 6.70048 7.66551 5.56211C7.66551 4.42374 6.74268 3.5009 5.60431 3.5009C4.46593 3.5009 3.5431 4.42374 3.5431 5.56211C3.5431 6.70048 4.46593 7.62331 5.60431 7.62331Z" fill="black"/>
</svg>
