<svg width="14" height="14" viewBox="0 0 14 14" fill="none" xmlns="http://www.w3.org/2000/svg">
<path d="M7 0C3.13413 0 0 3.03601 0 6.78084C0 10.5257 3.13413 13.5617 7 13.5617C10.8659 13.5617 14 10.5257 14 6.78084C14 3.03601 10.8659 0 7 0ZM6.19111 9.70775V6.60363C6.19111 6.39582 6.27633 6.19652 6.42803 6.04957C6.57973 5.90262 6.78547 5.82007 7 5.82007C7.21453 5.82007 7.42028 5.90262 7.57197 6.04957C7.72367 6.19652 7.80889 6.39582 7.80889 6.60363V9.70775C7.80889 9.91556 7.72367 10.1149 7.57197 10.2618C7.42028 10.4088 7.21453 10.4913 7 10.4913C6.78547 10.4913 6.57973 10.4088 6.42803 10.2618C6.27633 10.1149 6.19111 9.91556 6.19111 9.70775ZM7 4.96508C6.80771 4.96508 6.61974 4.90985 6.45986 4.80636C6.29998 4.70288 6.17537 4.55579 6.10178 4.3837C6.0282 4.21161 6.00895 4.02225 6.04646 3.83956C6.08397 3.65688 6.17657 3.48907 6.31254 3.35736C6.4485 3.22565 6.62174 3.13595 6.81033 3.09961C6.99892 3.06327 7.1944 3.08192 7.37205 3.1532C7.5497 3.22448 7.70154 3.3452 7.80837 3.50007C7.9152 3.65495 7.97222 3.83703 7.97222 4.0233C7.97222 4.27307 7.86979 4.51262 7.68747 4.68924C7.50514 4.86586 7.25785 4.96508 7 4.96508Z" fill="black"/>
</svg>
