<svg width="21" height="20" viewBox="0 0 21 20" fill="none" xmlns="http://www.w3.org/2000/svg">
<path d="M10.4314 0C4.67952 0 0 4.48597 0 10.0001C0 15.514 4.67952 20 10.4314 20C16.1833 20 20.8628 15.514 20.8628 10.0001C20.8628 4.48598 16.1833 0 10.4314 0ZM11.9602 12.007C11.789 12.2263 11.5718 12.4053 11.3238 12.5312C11.0758 12.6572 10.8031 12.7271 10.5251 12.736C10.5 12.737 10.4747 12.7375 10.4498 12.7375C10.1805 12.7388 9.91399 12.683 9.66791 12.5736C9.42183 12.4642 9.2018 12.3038 9.02237 12.103C8.83417 11.8948 8.69812 11.6448 8.62542 11.3737C8.55272 11.1026 8.54545 10.8181 8.60421 10.5436L10.03 2.08149C10.05 1.96289 10.1113 1.8552 10.2032 1.77753C10.295 1.69987 10.4114 1.65725 10.5316 1.65724H10.5366C10.6577 1.6584 10.7745 1.70274 10.8658 1.78228C10.9572 1.86183 11.0172 1.97135 11.035 2.09117L12.2827 10.4751C12.35 10.7381 12.356 11.013 12.3001 11.2787C12.2441 11.5443 12.1278 11.7935 11.9602 12.007Z" fill="black"/>
</svg>
