<svg width="139" height="123" viewBox="0 0 139 123" fill="none" xmlns="http://www.w3.org/2000/svg">
<path d="M138.245 122.626H0.461426L69.3533 0.40625L138.245 122.626ZM3.60425 120.76H135.102L69.3533 4.10988L3.60425 120.76Z" fill="black"/>
<path d="M69.3541 111.916C67.7271 111.916 66.406 110.562 66.406 108.896C66.406 107.229 67.7271 105.876 69.3541 105.876C70.9812 105.876 72.3023 107.229 72.3023 108.896C72.3023 110.562 70.9812 111.916 69.3541 111.916ZM69.3541 106.545C68.0887 106.545 67.0596 107.6 67.0596 108.896C67.0596 110.192 68.0887 111.246 69.3541 111.246C70.6196 111.246 71.6487 110.192 71.6487 108.896C71.6487 107.6 70.6196 106.545 69.3541 106.545Z" fill="black"/>
<path d="M69.3531 112C67.6844 112 66.3215 110.604 66.3215 108.894C66.3215 107.185 67.6844 105.789 69.3531 105.789C71.0218 105.789 72.3847 107.185 72.3847 108.894C72.3847 110.604 71.0218 112 69.3531 112ZM69.3531 105.946C67.7678 105.946 66.4884 107.271 66.4884 108.88C66.4884 110.504 67.7817 111.815 69.3531 111.815C70.9384 111.815 72.2178 110.49 72.2178 108.88C72.2178 107.271 70.9384 105.946 69.3531 105.946ZM69.3531 111.33C68.0459 111.33 66.9751 110.233 66.9751 108.894C66.9751 107.555 68.0459 106.459 69.3531 106.459C70.6603 106.459 71.7311 107.555 71.7311 108.894C71.7311 110.233 70.6603 111.33 69.3531 111.33ZM69.3531 106.63C68.1294 106.63 67.142 107.641 67.142 108.894C67.142 110.148 68.1294 111.159 69.3531 111.159C70.5768 111.159 71.5642 110.148 71.5642 108.894C71.5642 107.641 70.5629 106.63 69.3531 106.63Z" fill="black"/>
<path d="M69.8883 44.6881L69.1995 44.3477L46.6324 92.2504L47.3212 92.5909L69.8883 44.6881Z" fill="black"/>
<path d="M91.6869 92.5985L69.1309 44.6934C69.3534 44.5795 69.5898 44.4655 69.8123 44.3516C77.3356 60.3199 84.8589 76.2883 92.3683 92.2566L91.6869 92.5985Z" fill="black"/>
<path d="M69.8121 44.3516H69.2002V44.8074H69.8121V44.3516Z" fill="black"/>
<path d="M83.1065 72.9971H55.9475V73.7805H83.1065V72.9971Z" fill="black"/>
</svg>
