<svg width="26" height="23" viewBox="0 0 26 23" fill="none" xmlns="http://www.w3.org/2000/svg">
<path d="M25.1428 22.2549H0L12.5714 0.117188L25.1428 22.2549ZM0.573504 21.9169H24.5693L12.5714 0.788027L0.573504 21.9169Z" fill="black"/>
<path d="M12.5714 20.3579C11.1838 20.3579 10.0571 19.2241 10.0571 17.8276C10.0571 16.4312 11.1838 15.2974 12.5714 15.2974C13.959 15.2974 15.0857 16.4312 15.0857 17.8276C15.0857 19.2241 13.959 20.3579 12.5714 20.3579ZM12.5714 15.8583C11.4922 15.8583 10.6145 16.7415 10.6145 17.8276C10.6145 18.9137 11.4922 19.797 12.5714 19.797C13.6507 19.797 14.5283 18.9137 14.5283 17.8276C14.5283 16.7415 13.6507 15.8583 12.5714 15.8583Z" fill="#A4A4A4"/>
<path d="M12.5714 20.3579C11.1874 20.3579 10.0571 19.2205 10.0571 17.8276C10.0571 16.4348 11.1874 15.2974 12.5714 15.2974C13.9554 15.2974 15.0857 16.4348 15.0857 17.8276C15.0857 19.2205 13.9554 20.3579 12.5714 20.3579ZM12.5714 15.425C11.2566 15.425 10.1955 16.5045 10.1955 17.816C10.1955 19.1392 11.2681 20.207 12.5714 20.207C13.8862 20.207 14.9473 19.1276 14.9473 17.816C14.9473 16.5045 13.8862 15.425 12.5714 15.425ZM12.5714 19.8124C11.4873 19.8124 10.5992 18.9187 10.5992 17.8276C10.5992 16.7366 11.4873 15.8429 12.5714 15.8429C13.6556 15.8429 14.5436 16.7366 14.5436 17.8276C14.5436 18.9187 13.6556 19.8124 12.5714 19.8124ZM12.5714 15.9822C11.5565 15.9822 10.7376 16.8062 10.7376 17.8276C10.7376 18.849 11.5565 19.6731 12.5714 19.6731C13.5864 19.6731 14.4052 18.849 14.4052 17.8276C14.4052 16.8062 13.5748 15.9822 12.5714 15.9822Z" fill="#A4A4A4"/>
</svg>
